<svg viewBox="0 0 343 271" fill="none" xmlns="http://www.w3.org/2000/svg">
<path d="M171.5 270.11C76.7832 270.11 0 265.626 0 260.094C0 254.563 76.7832 250.079 171.5 250.079C266.217 250.079 343 254.563 343 260.094C343 265.626 266.217 270.11 171.5 270.11Z" fill="#F0F6FF"/>
<path d="M104.646 3.69637H295.622V190.695H104.646V3.69637Z" fill="#0F264C"/>
<path d="M109.547 9.67578H290.71V190.695H109.547V9.67578Z" fill="white"/>
<path d="M104.646 188.057V190.695H200.89L180.091 169.908L151.449 141.254L104.646 188.057Z" fill="#0F264C"/>
<path d="M295.622 190.695V172.722L236.45 113.549L159.304 190.695H295.622Z" fill="#0F264C"/>
<path d="M168.64 92.9557C152.491 92.9557 139.401 79.865 139.401 63.7168C139.401 47.5686 152.491 34.4779 168.64 34.4779C184.788 34.4779 197.878 47.5686 197.878 63.7168C197.878 79.865 184.788 92.9557 168.64 92.9557Z" fill="#0F264C"/>
<path d="M70.1284 13.3834L70.2144 14.2638L63.8933 14.8811L63.8073 14.0007L70.1284 13.3834Z" fill="#0053CC"/>
<path d="M91.6435 11.2791L91.7295 12.1595L76.2632 13.6699L76.1772 12.7895L91.6435 11.2791Z" fill="#0053CC"/>
<path d="M238.995 3.71465e-06L257.171 186.12L67.0926 204.683L48.9163 18.5629L238.995 3.71465e-06Z" fill="#0053CC"/>
<path d="M234.687 6.42887L252.282 186.597L71.9698 204.206L54.3747 24.038L234.687 6.42887Z" fill="white"/>
<path d="M66.8471 202.059L67.1036 204.685L162.893 195.331L140.172 176.664L108.88 150.929L66.8471 202.059Z" fill="#0053CC"/>
<path d="M257.176 186.124L255.429 168.235L190.786 115.094L121.504 199.373L257.176 186.124Z" fill="#0053CC"/>
<path d="M91.6827 83.8118C85.2008 69.0217 91.9359 51.7773 106.726 45.2954C121.516 38.8135 138.761 45.5487 145.243 60.3388C151.724 75.129 144.989 92.3734 130.199 98.8552C115.409 105.337 98.1646 98.602 91.6827 83.8118Z" fill="#0053CC"/>
<path d="M133.681 24.7297L324.256 37.1814L312.064 223.787L121.489 211.336L133.681 24.7297Z" fill="#9FC6FF"/>
<path d="M138.181 31.0156L318.964 42.8275L307.162 223.467L126.379 211.655L138.181 31.0156Z" fill="white"/>
<path d="M121.676 208.701L121.504 211.334L217.543 217.606L198.144 195.508L171.43 165.048L121.676 208.701Z" fill="#9FC6FF"/>
<path d="M312.074 223.78L313.246 205.845L258.056 142.941L176.046 214.896L312.074 223.78Z" fill="#9FC6FF"/>
<path d="M172.964 109.471C161.546 98.0521 161.546 79.5393 172.964 68.1209C184.383 56.7025 202.896 56.7025 214.314 68.1209C225.732 79.5393 225.732 98.0521 214.314 109.471C202.896 120.889 184.383 120.889 172.964 109.471Z" fill="#9FC6FF"/>
<path d="M57.2864 118.803L63.4976 120.86L57.8861 126.883C57.8861 126.883 52.9876 123.959 54.2472 121.191L57.2864 118.803Z" fill="#FFC3BD"/>
<path d="M67.752 126.404L62.8853 131.092L57.8859 126.884L63.4974 120.86L67.752 126.404Z" fill="#FFC3BD"/>
<path d="M47.1113 69.6379C46.4842 70.7966 45.9597 71.8288 45.444 72.938C44.9265 74.0295 44.4294 75.1264 43.9447 76.2302C42.9938 78.4451 42.1146 80.6962 41.3327 82.9969C40.5313 85.2887 39.86 87.6504 39.278 90.0563L38.8631 91.8731L38.5261 93.7288C38.4058 94.3409 38.3315 94.9804 38.2484 95.6129L38.1254 96.562L38.0953 96.799L38.0573 97.1935C38.0281 97.496 38.029 97.7623 38.029 98.0374C38.098 100.157 38.6384 101.588 39.1762 102.926C39.7308 104.247 40.3597 105.403 41.0125 106.512C42.3296 108.713 43.7829 110.678 45.2839 112.574C48.3081 116.351 51.5605 119.746 55.1004 122.982L58.7021 119.75C56.1273 116.031 53.5746 112.191 51.2757 108.39C50.1311 106.486 49.0626 104.558 48.1887 102.677C47.7553 101.743 47.3723 100.809 47.1175 99.9603C46.861 99.1342 46.7398 98.3018 46.8017 98.0966C46.8106 98.0816 46.8106 98.0586 46.8203 98.0736C46.8274 98.0568 46.8132 98.1249 46.8318 98.0374L46.8734 97.8463L47.0379 97.083C47.1485 96.5744 47.2449 96.0684 47.3926 95.5527L47.7959 94.0154L48.2515 92.4702C48.8963 90.4119 49.6119 88.3509 50.4132 86.297C51.2217 84.2485 52.0664 82.1999 52.9678 80.1708C53.8364 78.1532 54.8412 76.0799 55.7434 74.2082L47.1113 69.6379Z" fill="#FFC3BD"/>
<path d="M36.9633 85.11L49.0017 91.4697L51.9029 93.0088C51.9029 93.0088 52.584 91.0186 53.5482 88.1262C54.3265 85.8176 55.2995 82.9429 56.2548 80.0328C56.5555 79.1129 56.8563 78.2018 57.1482 77.2996C57.2366 77.0431 57.3251 76.7954 57.4047 76.5389C60.0052 68.5693 52.7875 64.9958 47.8783 66.0219C39.4665 67.7821 36.9633 85.11 36.9633 85.11Z" fill="#9FC6FF"/>
<path d="M49.0015 91.4697L51.9027 93.0088C51.9027 93.0088 52.5838 91.0186 53.5479 88.1262C54.3263 85.8176 55.2993 82.9429 56.2546 80.0328C56.5553 79.1129 56.8561 78.2018 57.1479 77.2996L50.514 75.9994C50.514 75.9994 49.6029 86.5252 49.0015 91.4697Z" fill="#77B3FC"/>
<path d="M57.4554 47.7908C58.8415 52.3913 60.6132 60.896 57.6421 64.3527C57.6421 64.3527 59.3979 68.9841 68.1149 68.1181C77.7005 67.1655 72.2235 62.9039 72.2235 62.9039C66.8677 62.1741 66.6165 58.2796 67.1658 54.5433L57.4554 47.7908Z" fill="#FFC3BD"/>
<path d="M74.0881 64.5235C73.6476 63.6779 74.2773 60.4972 74.2773 60.4972C74.2773 60.4972 60.6008 58.6556 55.7076 60.399C53.0752 61.3366 55.3848 66.0662 55.3848 66.0662L74.0881 64.5235Z" fill="#14365B"/>
<path d="M73.8049 40.8297C73.8562 41.3472 74.1719 41.739 74.5098 41.7054C74.8477 41.6718 75.0803 41.2251 75.029 40.7077C74.9777 40.1902 74.662 39.7984 74.3241 39.832C73.9862 39.8656 73.7536 40.3123 73.8049 40.8297Z" fill="#0F264C"/>
<path d="M73.82 41.088C73.82 41.088 75.2927 43.9556 76.731 45.2665C75.9004 46.2111 74.3056 45.9758 74.3056 45.9758L73.82 41.088Z" fill="#ED847E"/>
<path d="M71.8264 39.1208C71.929 39.1208 72.029 39.0687 72.0873 38.974C72.7967 37.8126 73.9201 37.7666 73.9316 37.7666C74.0996 37.7613 74.2332 37.6207 74.2279 37.4526C74.2235 37.2837 74.1058 37.1457 73.9147 37.1563C73.8555 37.1581 72.4473 37.2156 71.5663 38.6565C71.4788 38.8006 71.5239 38.9882 71.6681 39.0757C71.7167 39.1058 71.7715 39.1208 71.8264 39.1208Z" fill="#0F264C"/>
<path d="M101.663 246.38L108.09 245.903L108.693 230.891L102.266 231.37L101.663 246.38Z" fill="#FFC3BD"/>
<path d="M60.5837 252.105H67.0284L72.0498 237.18H65.6052L60.5837 252.105Z" fill="#FFC3BD"/>
<path d="M67.8889 251.359H60.0317C59.7681 251.359 59.5399 251.542 59.4833 251.799L58.2104 257.527C58.0786 258.122 58.5457 258.683 59.1542 258.674C61.6822 258.63 63.5265 258.482 66.7107 258.482C68.67 258.482 72.7052 258.685 75.4109 258.685C78.0566 258.685 78.4696 256.01 77.3622 255.768C72.3965 254.682 70.5257 253.183 68.9362 251.755C68.6479 251.497 68.2737 251.359 67.8889 251.359Z" fill="#14365B"/>
<path d="M108.397 244.46L101.378 244.982C101.116 245.001 100.902 245.2 100.864 245.461L100.019 251.268C99.9314 251.87 100.423 252.398 101.028 252.343C103.557 252.112 107.204 251.691 110.386 251.455C114.108 251.178 116.583 251.047 120.947 250.723C123.585 250.526 124.12 247.804 122.997 247.645C117.887 246.919 114.526 247.202 109.982 244.846C109.489 244.589 108.952 244.419 108.397 244.46Z" fill="#14365B"/>
<path d="M108.691 230.896L108.382 238.633L101.952 239.111L102.262 231.374L108.691 230.896Z" fill="#F29994"/>
<path d="M65.6025 237.184H72.0498L69.4581 244.878H63.0108L65.6025 237.184Z" fill="#F29994"/>
<path d="M52.2571 122.225C57.2989 121.853 76.272 120.438 86.6298 119.668C87.8682 109.638 88.0893 100.934 87.762 93.5926C87.6205 90.4614 87.3728 87.5778 87.0721 84.942C85.4799 71.1522 82.1188 64.1467 82.1188 64.1467C82.1188 64.1467 77.2273 63.1826 72.1059 63.0942C68.214 63.0322 61.8631 63.6426 57.4935 64.1821C51.8945 64.872 47.0826 66.2342 47.0826 66.2342C54.0262 90.7179 51.6291 116.962 52.2571 122.225Z" fill="#9FC6FF"/>
<path d="M83.6133 87.5866L87.7617 93.5926C87.6202 90.4614 87.3725 87.5778 87.0718 84.9419L83.6133 87.5866Z" fill="#77B3FC"/>
<path d="M86.2538 68.5941C86.8341 69.5998 87.5276 70.7409 88.1768 71.82C88.842 72.9115 89.5275 73.9933 90.2271 75.0626C91.6194 77.2076 93.062 79.3128 94.5542 81.3525C96.0535 83.3852 97.6103 85.3523 99.2405 87.1789C100.711 88.8126 102.245 90.3269 103.827 91.606C105.191 91.9129 106.571 92.1225 107.97 92.2021C109.722 92.2729 111.502 92.2039 113.274 91.8872C115.05 91.5936 116.822 91.0965 118.552 90.418C119.416 90.0775 120.283 89.714 121.115 89.2832C121.533 89.0718 121.942 88.8445 122.342 88.6101C122.728 88.3951 123.178 88.1112 123.453 87.9467L126.826 91.4167C126.342 91.9633 125.987 92.3375 125.552 92.7603C125.127 93.1592 124.695 93.5448 124.25 93.9137C123.363 94.6532 122.436 95.3466 121.459 95.972C119.508 97.228 117.378 98.2426 115.13 98.9997C112.879 99.7401 110.51 100.222 108.105 100.382C105.702 100.527 103.27 100.401 100.904 99.9736L100.167 99.8409L99.3307 99.289C96.7425 97.5809 94.5082 95.6465 92.4818 93.6006C90.4421 91.5644 88.5934 89.4247 86.8615 87.2231C85.1181 85.0304 83.5136 82.7616 81.9842 80.4521C81.228 79.2916 80.4902 78.1213 79.772 76.937C79.0396 75.7393 78.3771 74.5868 77.6704 73.2609L86.2538 68.5941Z" fill="#FFC3BD"/>
<path d="M74.5823 71.5564C75.0423 77.7012 82.3149 89.6627 82.3149 89.6627L98.7715 81.0129C98.7715 81.0129 93.1981 72.0561 87.1081 66.7189C80.9545 61.3233 74.0781 64.8136 74.5823 71.5564Z" fill="#9FC6FF"/>
<path d="M120.558 90.0863L125.368 85.8804L129.081 92.196C129.081 92.196 125.657 96.0375 121.635 93.62L120.558 90.0863Z" fill="#FFC3BD"/>
<path d="M132.064 83.0827L134.62 88.8975L129.08 92.1959L125.367 85.8804L132.064 83.0827Z" fill="#FFC3BD"/>
<path d="M56.1956 40.7855C57.2172 47.0992 57.4941 50.847 61.026 53.7889C66.3394 58.2142 73.8923 54.5257 74.7778 48.0333C75.5747 42.1901 73.7712 32.8459 67.3008 30.9354C60.9278 29.0549 55.1749 34.4717 56.1956 40.7855Z" fill="#FFC3BD"/>
<path d="M49.0427 37.4614C44.3256 40.7686 55.5688 52.9061 59.5651 52.7734C63.5676 52.6399 71.0356 41.5523 68.5996 35.6605C70.6632 34.8211 71.3275 34.5504 72.1625 32.4488C73.6777 28.6356 71.8459 22.2741 62.507 24.059C64.8245 25.6326 63.2199 26.8842 58.8212 26.2704C60.5407 28.334 57.6908 29.8571 53.4158 28.9726C54.1527 32.7566 44.6201 33.297 49.0427 37.4614Z" fill="#0F264C"/>
<path d="M65.0819 42.7429C65.3835 44.4412 66.4405 45.8414 67.6152 46.6348C69.3824 47.8272 70.9357 46.4093 71.0064 44.3908C71.0701 42.5739 70.2272 39.7638 68.183 39.3781C66.1698 38.9978 64.7378 40.8014 65.0819 42.7429Z" fill="#FFC3BD"/>
<path d="M60.683 243.384H72.4914C72.4914 243.384 83.9982 203.834 86.8862 183.352C87.5062 178.932 87.148 173.097 86.2175 166.759C84.6351 155.924 81.4313 143.618 78.7671 134.437C76.3957 126.275 74.4426 120.575 74.4426 120.575C74.4426 120.575 65.4169 121.246 52.2525 122.228C53.4564 138.33 69.3938 164.782 68.2846 186.638C67.2682 206.771 60.683 243.384 60.683 243.384Z" fill="#14365B"/>
<path d="M72.8914 139.094C73.0179 149.816 80.5505 161.66 86.2168 166.758C84.6344 155.923 81.4306 143.617 78.7664 134.436C77.1106 134.107 74.2695 137.246 72.8914 139.094Z" fill="#0A1B35"/>
<path d="M86.6313 119.669C86.6313 119.669 114.474 161.793 115.232 181.445C116.021 201.884 110.682 236.969 110.682 236.969L99.7948 237.778C99.7948 237.778 98.5264 204.414 96.553 184.429C94.4019 162.642 62.9578 138.361 61.7062 121.522C72.3364 120.732 86.6313 119.669 86.6313 119.669Z" fill="#14365B"/>
<path d="M74.5779 243.643H59.1482V239.49L76.3965 239.22L74.5779 243.643Z" fill="#0053CC"/>
<path d="M112.864 237.026L97.7448 238.186L97.4334 233.996L114.349 232.481L112.864 237.026Z" fill="#0053CC"/>
<path d="M70.0199 252.485C70.5108 252.485 70.969 252.401 71.2608 252.156C71.4917 251.962 71.5979 251.691 71.5758 251.35C71.5598 251.096 71.4254 250.975 71.3148 250.918C70.5957 250.557 68.5232 251.829 68.288 251.976C68.2358 252.009 68.2083 252.069 68.219 252.13C68.2287 252.191 68.2738 252.24 68.334 252.255C68.7806 252.362 69.4237 252.485 70.0199 252.485ZM70.9778 251.151C71.0574 251.151 71.1246 251.163 71.1759 251.19C71.2175 251.21 71.2653 251.25 71.2723 251.368C71.2874 251.611 71.2193 251.793 71.0654 251.922C70.7133 252.219 69.8704 252.259 68.7771 252.039C69.5042 251.618 70.4834 251.151 70.9778 251.151Z" fill="#407BFF"/>
<path d="M68.3696 252.258C68.3944 252.258 68.42 252.252 68.4421 252.239C69.1091 251.877 70.3987 250.464 70.2625 249.747C70.2377 249.617 70.1413 249.391 69.7769 249.347C69.5407 249.313 69.3204 249.383 69.1267 249.543C68.3775 250.155 68.2236 252.015 68.2183 252.094C68.2139 252.149 68.2396 252.203 68.2873 252.233C68.3121 252.249 68.3404 252.258 68.3696 252.258ZM69.6698 249.645C69.6928 249.645 69.7158 249.647 69.7388 249.65C69.9379 249.674 69.9547 249.765 69.9626 249.804C70.0431 250.229 69.2214 251.296 68.5589 251.799C68.6341 251.256 68.8393 250.171 69.3196 249.78C69.4301 249.689 69.5442 249.645 69.6698 249.645Z" fill="#407BFF"/>
<path d="M110.599 245.404C111.437 245.404 112.284 245.286 112.685 244.874C112.884 244.671 112.96 244.413 112.916 244.112C112.889 243.932 112.79 243.798 112.635 243.725C111.817 243.353 109.335 244.851 109.054 245.023C108.998 245.057 108.971 245.122 108.985 245.186C108.999 245.249 109.052 245.297 109.115 245.305C109.527 245.355 110.062 245.404 110.599 245.404ZM112.294 243.965C112.379 243.965 112.451 243.977 112.506 244.003C112.569 244.032 112.601 244.079 112.614 244.158C112.644 244.363 112.596 244.527 112.467 244.661C112.096 245.04 111.044 245.181 109.608 245.05C110.502 244.539 111.71 243.965 112.294 243.965Z" fill="#407BFF"/>
<path d="M109.135 245.307C109.16 245.307 109.185 245.3 109.207 245.287C109.957 244.882 111.39 243.378 111.219 242.66C111.178 242.491 111.042 242.288 110.62 242.276C110.306 242.278 110.03 242.377 109.795 242.6C109.028 243.332 108.983 245.077 108.981 245.15C108.98 245.204 109.007 245.255 109.054 245.284C109.08 245.299 109.107 245.307 109.135 245.307ZM110.587 242.581C110.596 242.581 110.603 242.581 110.612 242.582C110.889 242.589 110.914 242.696 110.922 242.732C111.025 243.162 110.062 244.332 109.306 244.866C109.352 244.355 109.504 243.301 110.008 242.821C110.176 242.659 110.366 242.581 110.587 242.581Z" fill="#407BFF"/>
</svg>
